<?xml version="1.0" encoding="utf-8"?>
<svg xmlns="http://www.w3.org/2000/svg" xmlns:xlink="http://www.w3.org/1999/xlink" style="margin: auto; background: none; display: block; shape-rendering: auto;" width="200px" height="200px" viewBox="0 0 100 100" preserveAspectRatio="xMidYMid">
<g transform="rotate(0 50 50)">
  <rect x="48.5" y="33.5" rx="1.5" ry="5.28" width="3" height="11" fill="#fe718d">
    <animate attributeName="opacity" values="1;0" keyTimes="0;1" dur="1.5625s" begin="-1.484375s" repeatCount="indefinite"></animate>
  </rect>
</g><g transform="rotate(18 50 50)">
  <rect x="48.5" y="33.5" rx="1.5" ry="5.28" width="3" height="11" fill="#f47e60">
    <animate attributeName="opacity" values="1;0" keyTimes="0;1" dur="1.5625s" begin="-1.40625s" repeatCount="indefinite"></animate>
  </rect>
</g><g transform="rotate(36 50 50)">
  <rect x="48.5" y="33.5" rx="1.5" ry="5.28" width="3" height="11" fill="#f8b26a">
    <animate attributeName="opacity" values="1;0" keyTimes="0;1" dur="1.5625s" begin="-1.328125s" repeatCount="indefinite"></animate>
  </rect>
</g><g transform="rotate(54 50 50)">
  <rect x="48.5" y="33.5" rx="1.5" ry="5.28" width="3" height="11" fill="#abbd81">
    <animate attributeName="opacity" values="1;0" keyTimes="0;1" dur="1.5625s" begin="-1.25s" repeatCount="indefinite"></animate>
  </rect>
</g><g transform="rotate(72 50 50)">
  <rect x="48.5" y="33.5" rx="1.5" ry="5.28" width="3" height="11" fill="#849b87">
    <animate attributeName="opacity" values="1;0" keyTimes="0;1" dur="1.5625s" begin="-1.171875s" repeatCount="indefinite"></animate>
  </rect>
</g><g transform="rotate(90 50 50)">
  <rect x="48.5" y="33.5" rx="1.5" ry="5.28" width="3" height="11" fill="#6492ac">
    <animate attributeName="opacity" values="1;0" keyTimes="0;1" dur="1.5625s" begin="-1.09375s" repeatCount="indefinite"></animate>
  </rect>
</g><g transform="rotate(108 50 50)">
  <rect x="48.5" y="33.5" rx="1.5" ry="5.28" width="3" height="11" fill="#637cb5">
    <animate attributeName="opacity" values="1;0" keyTimes="0;1" dur="1.5625s" begin="-1.015625s" repeatCount="indefinite"></animate>
  </rect>
</g><g transform="rotate(126 50 50)">
  <rect x="48.5" y="33.5" rx="1.5" ry="5.28" width="3" height="11" fill="#6a63b6">
    <animate attributeName="opacity" values="1;0" keyTimes="0;1" dur="1.5625s" begin="-0.9375s" repeatCount="indefinite"></animate>
  </rect>
</g><g transform="rotate(144 50 50)">
  <rect x="48.5" y="33.5" rx="1.5" ry="5.28" width="3" height="11" fill="#fe718d">
    <animate attributeName="opacity" values="1;0" keyTimes="0;1" dur="1.5625s" begin="-0.859375s" repeatCount="indefinite"></animate>
  </rect>
</g><g transform="rotate(162 50 50)">
  <rect x="48.5" y="33.5" rx="1.5" ry="5.28" width="3" height="11" fill="#f47e60">
    <animate attributeName="opacity" values="1;0" keyTimes="0;1" dur="1.5625s" begin="-0.78125s" repeatCount="indefinite"></animate>
  </rect>
</g><g transform="rotate(180 50 50)">
  <rect x="48.5" y="33.5" rx="1.5" ry="5.28" width="3" height="11" fill="#f8b26a">
    <animate attributeName="opacity" values="1;0" keyTimes="0;1" dur="1.5625s" begin="-0.703125s" repeatCount="indefinite"></animate>
  </rect>
</g><g transform="rotate(198 50 50)">
  <rect x="48.5" y="33.5" rx="1.5" ry="5.28" width="3" height="11" fill="#abbd81">
    <animate attributeName="opacity" values="1;0" keyTimes="0;1" dur="1.5625s" begin="-0.625s" repeatCount="indefinite"></animate>
  </rect>
</g><g transform="rotate(216 50 50)">
  <rect x="48.5" y="33.5" rx="1.5" ry="5.28" width="3" height="11" fill="#849b87">
    <animate attributeName="opacity" values="1;0" keyTimes="0;1" dur="1.5625s" begin="-0.546875s" repeatCount="indefinite"></animate>
  </rect>
</g><g transform="rotate(234 50 50)">
  <rect x="48.5" y="33.5" rx="1.5" ry="5.28" width="3" height="11" fill="#6492ac">
    <animate attributeName="opacity" values="1;0" keyTimes="0;1" dur="1.5625s" begin="-0.46875s" repeatCount="indefinite"></animate>
  </rect>
</g><g transform="rotate(252 50 50)">
  <rect x="48.5" y="33.5" rx="1.5" ry="5.28" width="3" height="11" fill="#637cb5">
    <animate attributeName="opacity" values="1;0" keyTimes="0;1" dur="1.5625s" begin="-0.390625s" repeatCount="indefinite"></animate>
  </rect>
</g><g transform="rotate(270 50 50)">
  <rect x="48.5" y="33.5" rx="1.5" ry="5.28" width="3" height="11" fill="#6a63b6">
    <animate attributeName="opacity" values="1;0" keyTimes="0;1" dur="1.5625s" begin="-0.3125s" repeatCount="indefinite"></animate>
  </rect>
</g><g transform="rotate(288 50 50)">
  <rect x="48.5" y="33.5" rx="1.5" ry="5.28" width="3" height="11" fill="#fe718d">
    <animate attributeName="opacity" values="1;0" keyTimes="0;1" dur="1.5625s" begin="-0.234375s" repeatCount="indefinite"></animate>
  </rect>
</g><g transform="rotate(306 50 50)">
  <rect x="48.5" y="33.5" rx="1.5" ry="5.28" width="3" height="11" fill="#f47e60">
    <animate attributeName="opacity" values="1;0" keyTimes="0;1" dur="1.5625s" begin="-0.15625s" repeatCount="indefinite"></animate>
  </rect>
</g><g transform="rotate(324 50 50)">
  <rect x="48.5" y="33.5" rx="1.5" ry="5.28" width="3" height="11" fill="#f8b26a">
    <animate attributeName="opacity" values="1;0" keyTimes="0;1" dur="1.5625s" begin="-0.078125s" repeatCount="indefinite"></animate>
  </rect>
</g><g transform="rotate(342 50 50)">
  <rect x="48.5" y="33.5" rx="1.5" ry="5.28" width="3" height="11" fill="#abbd81">
    <animate attributeName="opacity" values="1;0" keyTimes="0;1" dur="1.5625s" begin="0s" repeatCount="indefinite"></animate>
  </rect>
</g>
<!-- [ldio] generated by https://loading.io/ --></svg>